<svg xmlns="http://www.w3.org/2000/svg" xmlns:xlink="http://www.w3.org/1999/xlink" width="990" height="494.2"><rect width="990" height="494.2" rx="5" ry="5" class="a"/><svg y="0%" x="0%"><circle cx="20" cy="20" r="6" fill="#ff5f58"/><circle cx="40" cy="20" r="6" fill="#ffbd2e"/><circle cx="60" cy="20" r="6" fill="#18c132"/></svg><svg height="434.2" viewBox="0 0 95 43.42" width="950" x="15" xmlns="http://www.w3.org/2000/svg" xmlns:xlink="http://www.w3.org/1999/xlink" y="50"><style>@keyframes r{0%{transform:translateX(0)}3.4%{transform:translateX(-95px)}6.1%{transform:translateX(-380px)}10.2%{transform:translateX(-475px)}10.6%{transform:translateX(-570px)}13.2%{transform:translateX(-760px)}14.6%{transform:translateX(-855px)}14.7%{transform:translateX(-1045px)}16.3%{transform:translateX(-1140px)}16.4%{transform:translateX(-1330px)}16.9%{transform:translateX(-1425px)}17%{transform:translateX(-1710px)}18.4%{transform:translateX(-1995px)}to{transform:translateX(-2090px)}}.a{fill:#282d35}.f,.g{white-space:pre}.f{fill:#b9bfca;font-weight:700}.g{fill:#dbab79}.h{fill:#b9bfca}.h,.i,.j{white-space:pre}.i{fill:#dbab79;font-weight:700}.j{fill:#6f7783}.k{fill:#b9c0cb}.k,.l,.m,.n,.o{white-space:pre}.l{fill:#b9c0cb;font-weight:700}.m,.n,.o{fill:#e88388}.n,.o{fill:#a8cc8c}.o{fill:#e88388;font-weight:700}</style><g font-family="Monaco,Consolas,Menlo,'Bitstream Vera Sans Mono','Powerline Symbols',monospace" font-size="1.67"><defs><symbol id="1"><text x="1.002" y="1.67" class="f">codeowners-samples</text><text x="20.04" y="1.67" class="g">on</text><text x="23.046" y="1.67" class="g">(</text><text x="24.048" y="1.67" class="h">failures</text><text x="32.064" y="1.67" class="i">)</text></symbol><symbol id="2"><text x="38.076" y="1.67" class="j">EXPERIMENTAL_CHECKS=&quot;notowned&quot;</text><text x="69.138" y="1.67" class="j">\</text></symbol><symbol id="3"><text x="38.076" y="1.67" class="j">CHECKS=&quot;files,duppatterns,syntax&quot;</text><text x="72.144" y="1.67" class="j">\</text></symbol><symbol id="4"><text x="38.076" y="1.67" class="j">gh</text><text x="41.082" y="1.67" class="j">validate-codeowners</text></symbol><symbol id="5"><text x="1.002" y="1.67" class="f">codeowners-samples</text><text x="20.04" y="1.67" class="g">on</text><text x="23.046" y="1.67" class="g">(</text><text x="24.048" y="1.67" class="h">failures</text><text x="32.064" y="1.67" class="i">)</text><text x="34.068" y="1.67" class="i">env</text><text x="38.076" y="1.67" class="k">REPOSITORY_PATH=</text><text x="54.108" y="1.67" class="g">&quot;.&quot;</text><text x="58.116" y="1.67" class="k">\</text></symbol><symbol id="6"><text x="38.076" y="1.67" class="k">EXPERIMENTAL_CHECKS=</text><text x="58.116" y="1.67" class="g">&quot;notowned&quot;</text><text x="69.138" y="1.67" class="k">\</text></symbol><symbol id="7"><text x="38.076" y="1.67" class="k">CHECKS=</text><text x="45.09" y="1.67" class="g">&quot;files,duppatterns,syntax&quot;</text><text x="72.144" y="1.67" class="k">\</text></symbol><symbol id="8"><text x="38.076" y="1.67" class="k">gh</text><text x="41.082" y="1.67" class="k">validate-codeowners</text></symbol><symbol id="9"><text y="1.67" class="l">==&gt;</text><text x="4.008" y="1.67" class="l">Executing</text><text x="14.028" y="1.67" class="l">Duplicated</text><text x="25.05" y="1.67" class="l">Pattern</text><text x="33.066" y="1.67" class="l">Checker</text><text x="41.082" y="1.67" class="l">(111.438µs)</text></symbol><symbol id="10"><text x="4.008" y="1.67" class="m">[err]</text><text x="10.02" y="1.67" class="h">Pattern</text><text x="18.036" y="1.67" class="h">&quot;/some/awesome/dir&quot;</text><text x="38.076" y="1.67" class="h">is</text><text x="41.082" y="1.67" class="h">defined</text><text x="49.098" y="1.67" class="h">2</text><text x="51.102" y="1.67" class="h">times</text><text x="57.114" y="1.67" class="h">in</text><text x="60.12" y="1.67" class="h">lines:</text></symbol><symbol id="11"><text x="12.024" y="1.67" class="h">*</text><text x="14.028" y="1.67" class="h">10:</text><text x="18.036" y="1.67" class="h">with</text><text x="23.046" y="1.67" class="h">owners:</text><text x="31.062" y="1.67" class="h">[@mszostok</text><text x="42.084" y="1.67" class="h">@owner-a]</text></symbol><symbol id="12"><text x="12.024" y="1.67" class="h">*</text><text x="14.028" y="1.67" class="h">11:</text><text x="18.036" y="1.67" class="h">with</text><text x="23.046" y="1.67" class="h">owners:</text><text x="31.062" y="1.67" class="h">[@octocat]</text></symbol><symbol id="13"><text y="1.67" class="l">==&gt;</text><text x="4.008" y="1.67" class="l">Executing</text><text x="14.028" y="1.67" class="l">Valid</text><text x="20.04" y="1.67" class="l">Syntax</text><text x="27.054" y="1.67" class="l">Checker</text><text x="35.07" y="1.67" class="l">(81.191µs)</text></symbol><symbol id="14"><text x="4.008" y="1.67" class="n">Check</text><text x="10.02" y="1.67" class="n">OK</text></symbol><symbol id="15"><text y="1.67" class="l">==&gt;</text><text x="4.008" y="1.67" class="l">Executing</text><text x="14.028" y="1.67" class="l">File</text><text x="19.038" y="1.67" class="l">Exist</text><text x="25.05" y="1.67" class="l">Checker</text><text x="33.066" y="1.67" class="l">(6.275593ms)</text></symbol><symbol id="16"><text x="4.008" y="1.67" class="m">[err]</text><text x="10.02" y="1.67" class="h">line</text><text x="15.03" y="1.67" class="h">13:</text><text x="19.038" y="1.67" class="h">&quot;/this-folder-does-not-exits/really&quot;</text><text x="56.112" y="1.67" class="h">does</text><text x="61.122" y="1.67" class="h">not</text><text x="65.13" y="1.67" class="h">match</text><text x="71.142" y="1.67" class="h">any</text><text x="75.15" y="1.67" class="h">files</text><text x="81.162" y="1.67" class="h">in</text><text x="84.168" y="1.67" class="h">repository</text></symbol><symbol id="17"><text y="1.67" class="l">==&gt;</text><text x="4.008" y="1.67" class="l">Executing</text><text x="14.028" y="1.67" class="l">[Experimental]</text><text x="29.058" y="1.67" class="l">Not</text><text x="33.066" y="1.67" class="l">Owned</text><text x="39.078" y="1.67" class="l">File</text><text x="44.088" y="1.67" class="l">Checker</text><text x="52.104" y="1.67" class="l">(69.693494ms)</text></symbol><symbol id="18"><text y="1.67" class="k">4</text><text x="2.004" y="1.67" class="k">check(s)</text><text x="11.022" y="1.67" class="k">executed,</text><text x="21.042" y="1.67" class="k">2</text><text x="23.046" y="1.67" class="k">failure(s)</text></symbol><symbol id="19"><text x="1.002" y="1.67" class="o">codeowners-samples</text><text x="20.04" y="1.67" class="i">on</text><text x="23.046" y="1.67" class="i">(</text><text x="24.048" y="1.67" class="f">failures</text><text x="32.064" y="1.67" class="i">)</text></symbol><symbol id="a"><path fill="transparent" d="M0 0h95v20H0z"/></symbol><symbol id="b"><path fill="#6f7683" d="M0 0h1.102v2.171H0z"/></symbol></defs><path class="a" d="M0 0h95v43.42H0z"/><g style="animation-duration:11.581157s;animation-iteration-count:infinite;animation-name:r;animation-timing-function:steps(1,end)"><svg width="2185"><svg><use xlink:href="#a"/><use xlink:href="#b" x="-.004"/></svg><svg x="95"><use xlink:href="#a"/><use xlink:href="#b" x="-.004"/></svg><svg x="190"><use xlink:href="#a"/><use xlink:href="#b" x="33.996"/><use xlink:href="#1"/></svg><svg x="285"><use xlink:href="#a"/><use xlink:href="#b" x="33.996"/><use xlink:href="#1"/></svg><svg x="380"><use xlink:href="#a"/><use xlink:href="#b" x="33.996"/><use xlink:href="#1"/></svg><svg x="475"><use xlink:href="#a"/><use xlink:href="#b" x="34.996"/><text x="1.002" y="1.67" class="f">codeowners-samples</text><text x="20.04" y="1.67" class="g">on</text><text x="23.046" y="1.67" class="g">(</text><text x="24.048" y="1.67" class="h">failures</text><text x="32.064" y="1.67" class="i">)</text><text x="34.068" y="1.67" class="o">e</text><text x="35.07" y="1.67" class="j">nv</text><text x="38.076" y="1.67" class="j">REPOSITORY_PATH=&quot;.&quot;</text><text x="58.116" y="1.67" class="j">\</text><use xlink:href="#2" y="2.171"/><use xlink:href="#3" y="4.342"/><use xlink:href="#4" y="6.513"/></svg><svg x="570"><use xlink:href="#a"/><use xlink:href="#b" x="35.996"/><text x="1.002" y="1.67" class="f">codeowners-samples</text><text x="20.04" y="1.67" class="g">on</text><text x="23.046" y="1.67" class="g">(</text><text x="24.048" y="1.67" class="h">failures</text><text x="32.064" y="1.67" class="i">)</text><text x="34.068" y="1.67" class="o">en</text><text x="36.072" y="1.67" class="j">v</text><text x="38.076" y="1.67" class="j">REPOSITORY_PATH=&quot;.&quot;</text><text x="58.116" y="1.67" class="j">\</text><use xlink:href="#2" y="2.171"/><use xlink:href="#3" y="4.342"/><use xlink:href="#4" y="6.513"/></svg><svg x="665"><use xlink:href="#a"/><use xlink:href="#b" x="67.996" y="4.317"/><use xlink:href="#5"/><use xlink:href="#6" y="2.171"/><text x="38.076" y="6.012" class="k">CHECKS=</text><text x="45.09" y="6.012" class="g">&quot;files,duppatterns,synt</text><text x="68.136" y="6.012" class="j">ax&quot;</text><text x="72.144" y="6.012" class="j">\</text><use xlink:href="#4" y="6.513"/></svg><svg x="760"><use xlink:href="#a"/><use xlink:href="#b" x="59.996" y="6.488"/><use xlink:href="#5"/><use xlink:href="#6" y="2.171"/><use xlink:href="#7" y="4.342"/><use xlink:href="#8" y="6.513"/></svg><svg x="855"><use xlink:href="#a"/><use xlink:href="#b" x="59.996" y="6.488"/><use xlink:href="#5"/><use xlink:href="#6" y="2.171"/><use xlink:href="#7" y="4.342"/><use xlink:href="#8" y="6.513"/></svg><svg x="950"><use xlink:href="#a"/><use xlink:href="#b" x="-.004" y="8.659"/><use xlink:href="#5"/><use xlink:href="#6" y="2.171"/><use xlink:href="#7" y="4.342"/><use xlink:href="#8" y="6.513"/></svg><svg x="1045"><use xlink:href="#a"/><use xlink:href="#b" x="-.004" y="8.659"/><use xlink:href="#5"/><use xlink:href="#6" y="2.171"/><use xlink:href="#7" y="4.342"/><use xlink:href="#8" y="6.513"/></svg><svg x="1140"><use xlink:href="#a"/><use xlink:href="#b" x="-.004" y="21.685"/><use xlink:href="#5"/><use xlink:href="#6" y="2.171"/><use xlink:href="#7" y="4.342"/><use xlink:href="#8" y="6.513"/><use xlink:href="#9" y="8.684"/><use xlink:href="#10" y="10.855"/><use xlink:href="#11" y="13.026"/><use xlink:href="#12" y="15.197"/><use xlink:href="#13" y="17.368"/><use xlink:href="#14" y="19.539"/></svg><svg x="1235"><use xlink:href="#a"/><use xlink:href="#b" x="8.996" y="23.856"/><use xlink:href="#5"/><use xlink:href="#6" y="2.171"/><use xlink:href="#7" y="4.342"/><use xlink:href="#8" y="6.513"/><use xlink:href="#9" y="8.684"/><use xlink:href="#10" y="10.855"/><use xlink:href="#11" y="13.026"/><use xlink:href="#12" y="15.197"/><use xlink:href="#13" y="17.368"/><use xlink:href="#14" y="19.539"/><use xlink:href="#15" y="21.71"/><text x="4.008" y="25.551" class="m">[err]</text></svg><svg x="1330"><use xlink:href="#a"/><use xlink:href="#b" x="-.004" y="26.027"/><use xlink:href="#5"/><use xlink:href="#6" y="2.171"/><use xlink:href="#7" y="4.342"/><use xlink:href="#8" y="6.513"/><use xlink:href="#9" y="8.684"/><use xlink:href="#10" y="10.855"/><use xlink:href="#11" y="13.026"/><use xlink:href="#12" y="15.197"/><use xlink:href="#13" y="17.368"/><use xlink:href="#14" y="19.539"/><use xlink:href="#15" y="21.71"/><use xlink:href="#16" y="23.881"/></svg><svg x="1425"><use xlink:href="#a"/><use xlink:href="#b" x="-.004" y="34.711"/><use xlink:href="#5"/><use xlink:href="#6" y="2.171"/><use xlink:href="#7" y="4.342"/><use xlink:href="#8" y="6.513"/><use xlink:href="#9" y="8.684"/><use xlink:href="#10" y="10.855"/><use xlink:href="#11" y="13.026"/><use xlink:href="#12" y="15.197"/><use xlink:href="#13" y="17.368"/><use xlink:href="#14" y="19.539"/><use xlink:href="#15" y="21.71"/><use xlink:href="#16" y="23.881"/><use xlink:href="#17" y="26.052"/><use xlink:href="#14" y="28.223"/><use xlink:href="#18" y="32.565"/></svg><svg x="1520"><use xlink:href="#a"/><use xlink:href="#b" x="-.004" y="34.711"/><use xlink:href="#5"/><use xlink:href="#6" y="2.171"/><use xlink:href="#7" y="4.342"/><use xlink:href="#8" y="6.513"/><use xlink:href="#9" y="8.684"/><use xlink:href="#10" y="10.855"/><use xlink:href="#11" y="13.026"/><use xlink:href="#12" y="15.197"/><use xlink:href="#13" y="17.368"/><use xlink:href="#14" y="19.539"/><use xlink:href="#15" y="21.71"/><use xlink:href="#16" y="23.881"/><use xlink:href="#17" y="26.052"/><use xlink:href="#14" y="28.223"/><use xlink:href="#18" y="32.565"/></svg><svg x="1615"><use xlink:href="#a"/><use xlink:href="#b" x="-.004" y="34.711"/><use xlink:href="#5"/><use xlink:href="#6" y="2.171"/><use xlink:href="#7" y="4.342"/><use xlink:href="#8" y="6.513"/><use xlink:href="#9" y="8.684"/><use xlink:href="#10" y="10.855"/><use xlink:href="#11" y="13.026"/><use xlink:href="#12" y="15.197"/><use xlink:href="#13" y="17.368"/><use xlink:href="#14" y="19.539"/><use xlink:href="#15" y="21.71"/><use xlink:href="#16" y="23.881"/><use xlink:href="#17" y="26.052"/><use xlink:href="#14" y="28.223"/><use xlink:href="#18" y="32.565"/></svg><svg x="1710"><use xlink:href="#a"/><use xlink:href="#b" x="-.004" y="34.711"/><use xlink:href="#5"/><use xlink:href="#6" y="2.171"/><use xlink:href="#7" y="4.342"/><use xlink:href="#8" y="6.513"/><use xlink:href="#9" y="8.684"/><use xlink:href="#10" y="10.855"/><use xlink:href="#11" y="13.026"/><use xlink:href="#12" y="15.197"/><use xlink:href="#13" y="17.368"/><use xlink:href="#14" y="19.539"/><use xlink:href="#15" y="21.71"/><use xlink:href="#16" y="23.881"/><use xlink:href="#17" y="26.052"/><use xlink:href="#14" y="28.223"/><use xlink:href="#18" y="32.565"/></svg><svg x="1805"><use xlink:href="#a"/><use xlink:href="#b" x="33.996" y="34.711"/><use xlink:href="#5"/><use xlink:href="#6" y="2.171"/><use xlink:href="#7" y="4.342"/><use xlink:href="#8" y="6.513"/><use xlink:href="#9" y="8.684"/><use xlink:href="#10" y="10.855"/><use xlink:href="#11" y="13.026"/><use xlink:href="#12" y="15.197"/><use xlink:href="#13" y="17.368"/><use xlink:href="#14" y="19.539"/><use xlink:href="#15" y="21.71"/><use xlink:href="#16" y="23.881"/><use xlink:href="#17" y="26.052"/><use xlink:href="#14" y="28.223"/><use xlink:href="#18" y="32.565"/><use xlink:href="#19" y="34.736"/></svg><svg x="1900"><use xlink:href="#a"/><use xlink:href="#b" x="33.996" y="34.711"/><use xlink:href="#5"/><use xlink:href="#6" y="2.171"/><use xlink:href="#7" y="4.342"/><use xlink:href="#8" y="6.513"/><use xlink:href="#9" y="8.684"/><use xlink:href="#10" y="10.855"/><use xlink:href="#11" y="13.026"/><use xlink:href="#12" y="15.197"/><use xlink:href="#13" y="17.368"/><use xlink:href="#14" y="19.539"/><use xlink:href="#15" y="21.71"/><use xlink:href="#16" y="23.881"/><use xlink:href="#17" y="26.052"/><use xlink:href="#14" y="28.223"/><use xlink:href="#18" y="32.565"/><use xlink:href="#19" y="34.736"/></svg><svg x="1995"><use xlink:href="#a"/><use xlink:href="#b" x="33.996" y="34.711"/><use xlink:href="#5"/><use xlink:href="#6" y="2.171"/><use xlink:href="#7" y="4.342"/><use xlink:href="#8" y="6.513"/><use xlink:href="#9" y="8.684"/><use xlink:href="#10" y="10.855"/><use xlink:href="#11" y="13.026"/><use xlink:href="#12" y="15.197"/><use xlink:href="#13" y="17.368"/><use xlink:href="#14" y="19.539"/><use xlink:href="#15" y="21.71"/><use xlink:href="#16" y="23.881"/><use xlink:href="#17" y="26.052"/><use xlink:href="#14" y="28.223"/><use xlink:href="#18" y="32.565"/><use xlink:href="#19" y="34.736"/></svg><svg x="2090"><use xlink:href="#a"/><use xlink:href="#b" x="-.004" y="36.882"/><use xlink:href="#5"/><use xlink:href="#6" y="2.171"/><use xlink:href="#7" y="4.342"/><use xlink:href="#8" y="6.513"/><use xlink:href="#9" y="8.684"/><use xlink:href="#10" y="10.855"/><use xlink:href="#11" y="13.026"/><use xlink:href="#12" y="15.197"/><use xlink:href="#13" y="17.368"/><use xlink:href="#14" y="19.539"/><use xlink:href="#15" y="21.71"/><use xlink:href="#16" y="23.881"/><use xlink:href="#17" y="26.052"/><use xlink:href="#14" y="28.223"/><use xlink:href="#18" y="32.565"/><use xlink:href="#19" y="34.736"/></svg></svg></g></g></svg></svg>